<svg width="64" height="86" viewBox="0 0 64 86" fill="none" xmlns="http://www.w3.org/2000/svg">
<path d="M59.1571 84.3157C58.8299 84.2189 58.6009 84.0575 58.47 83.8315C58.3391 83.6056 58.241 82.8954 58.2083 81.7334C58.1755 80.1517 58.1428 78.5054 58.1428 76.8269V68.2406C58.1755 64.9804 58.2083 63.2373 58.2083 62.9791C58.241 62.043 58.3391 61.4297 58.5027 61.1715C58.6336 60.9778 58.8627 60.8487 59.1571 60.7196C59.4843 60.6227 60.3678 60.5582 61.8729 60.5259V59.3638C59.4516 59.4607 57.5866 59.4929 56.3432 59.4929C55.0344 59.4929 53.2021 59.4607 50.8136 59.3638V60.5582C52.3187 60.5904 53.2021 60.655 53.5293 60.7518C53.8565 60.8487 54.0856 61.0101 54.2164 61.236C54.3473 61.462 54.4455 62.1398 54.4782 63.3342C54.5109 64.9481 54.5436 66.5944 54.5436 68.2729V76.7946C54.5109 80.0548 54.4782 81.7979 54.4782 82.0562C54.4455 82.9923 54.3473 83.6056 54.1837 83.8638C54.0528 84.0575 53.8238 84.1866 53.4966 84.3157C53.1694 84.4125 52.2533 84.4771 50.7809 84.5094V85.7037L56.5723 85.5423C57.423 85.5423 59.1571 85.6069 61.8402 85.7037V84.5094C60.3678 84.4771 59.4516 84.4125 59.1571 84.3157ZM30.1346 60.7196C30.4618 60.8164 30.6909 60.9778 30.8218 61.2037C30.9526 61.4297 31.0508 62.1076 31.0835 63.3019C31.1162 64.9159 31.149 66.5621 31.149 68.2406V76.7946C31.1162 80.0548 31.0835 81.7979 31.0835 82.0562C31.0508 82.9923 30.9526 83.6056 30.789 83.8638C30.6582 84.0575 30.4291 84.1866 30.1019 84.3157C29.7747 84.4125 28.8586 84.4771 27.3862 84.5094V85.7037C30.1019 85.6069 32.1633 85.5423 33.5702 85.5423C35.1408 85.5423 36.7441 85.6069 38.3146 85.7037V84.5094C36.8422 84.4771 35.9261 84.4125 35.5989 84.3157C35.2717 84.2189 35.0426 84.0575 34.879 83.8315C34.7481 83.6056 34.65 82.8954 34.6173 81.7334C34.5518 80.1517 34.5518 78.5054 34.5518 76.8269V73.0825C35.5007 73.018 36.4169 73.018 37.3003 73.018C39.8197 73.018 41.423 73.0825 42.1428 73.2439C42.5027 73.3408 42.7645 73.4699 42.8627 73.6313C42.9281 73.7281 43.0263 74.4382 43.1571 75.794L43.288 76.9883H44.4659L44.3351 72.4369L44.4659 68.2083H43.288L43.2226 69.3704C43.0917 70.2742 42.9935 70.7907 42.8627 70.9521C42.7645 71.0812 42.5355 71.2103 42.1428 71.2426C41.194 71.404 39.9179 71.4686 38.3146 71.4686C37.2349 71.4686 35.9915 71.4363 34.5845 71.404V67.3045C34.65 64.819 34.65 63.3987 34.6827 63.0759C34.7154 62.4949 34.7481 61.8816 34.8463 61.2037C36.1878 61.0423 37.4966 60.9778 38.7727 60.9778C40.0488 60.9778 41.1612 61.0423 42.1101 61.1392C43.059 61.236 43.877 61.3974 44.5314 61.6234C44.7277 62.4304 44.8913 63.5601 44.9895 65.0773H46.1674C46.2655 62.3981 46.4618 60.5259 46.7563 59.4607C46.1346 59.3961 45.4475 59.3638 44.695 59.3638C43.9424 59.3315 43.0917 59.3315 42.1755 59.3315C41.3248 59.3315 39.6888 59.3638 37.2676 59.3961C34.8463 59.4607 33.1449 59.4607 32.2287 59.4607C30.8872 59.4607 29.2839 59.4284 27.3862 59.3638V60.5582C28.8913 60.5582 29.8074 60.6227 30.1346 60.7196ZM7.42708 85.5423L18.65 85.7037C20.1878 85.7037 21.4966 85.6392 22.5764 85.4778C22.5764 83.8315 22.74 81.7656 23.0672 79.2801H21.8238C21.7257 79.8289 21.5621 80.6681 21.2676 81.7656C21.104 82.4112 20.9731 82.9277 20.8095 83.3151C20.2205 83.541 19.5989 83.7024 18.9445 83.8315C18.2574 83.9284 17.1449 83.9929 15.5416 83.9929C13.2839 83.9929 11.288 83.9284 9.48843 83.7992C9.42299 82.6049 9.39027 80.8618 9.39027 78.6023C9.39027 76.1813 9.42299 74.3414 9.48843 73.1148C11.0263 73.0502 12.2042 73.018 13.0549 73.018C15.1162 73.018 16.4905 73.0825 17.2103 73.2439C17.603 73.3408 17.8974 73.4699 18.0283 73.6958C18.1592 73.9218 18.2574 74.5028 18.2901 75.4066L18.3555 76.6655H19.6643L19.5661 72.3401L19.6643 68.4989V68.1438H18.5518L18.4537 69.435C18.3555 70.3065 18.2573 70.7907 18.1592 70.9521C18.061 71.1135 17.7993 71.2103 17.3739 71.2426C16.3269 71.3717 15.0508 71.4363 13.5457 71.4363C12.3023 71.4363 10.9608 71.404 9.52115 71.3394L9.58659 65.0773C9.61931 63.8829 9.65203 62.5918 9.68475 61.236C10.1428 61.2037 10.8954 61.1715 11.9097 61.1069C12.9567 61.0423 13.6111 61.0423 13.9056 61.0423C15.3126 61.0423 16.7195 61.1392 18.1265 61.3006C18.9445 61.3974 19.697 61.5911 20.3841 61.8816C20.5477 62.9145 20.6459 64.0766 20.6132 65.3355H21.7911C21.9874 62.8823 22.1183 61.5911 22.1183 61.4943C22.1837 60.9778 22.3473 60.3645 22.5436 59.6543C21.4312 59.5252 20.286 59.4607 19.0426 59.4607C17.7993 59.4607 15.8361 59.4929 13.1203 59.5252L7.4598 59.6221L2.09375 59.3638V60.5582C3.59886 60.5904 4.4823 60.655 4.8095 60.7518C5.13669 60.8487 5.36573 61.0101 5.49661 61.236C5.62749 61.462 5.72565 62.1398 5.75837 63.3342C5.79109 64.9481 5.82381 66.5944 5.82381 68.2729V77.7307C5.82381 78.9251 5.79109 80.3131 5.72565 81.9593C5.66021 83.0245 5.59477 83.6701 5.46389 83.8961C5.39845 84.0575 5.26757 84.1866 5.10398 84.2512C4.67862 84.4448 3.8279 84.5417 2.51911 84.5417V85.7037C5.62749 85.5746 7.26348 85.5423 7.42708 85.5423Z" fill="#FFFFFF"/>
<path d="M0 48.7438C0 48.7438 37.726 32.3459 53.1697 14.2372C53.1697 14.2372 38.184 26.0837 29.4479 30.8288C29.4479 30.8288 37.3333 24.4697 43.8119 16.5936C43.8119 16.5936 27.6155 29.6021 16.0982 37.2846C21.955 28.9888 20.1227 20.9836 24.3763 20.9836C26.1104 20.9836 26.6994 22.1456 28.5971 22.1456C30.364 22.1456 31.5419 20.8867 31.5419 19.0791C31.5419 17.2715 31.2147 13.5593 31.2147 11.9454C31.2147 10.3314 32 8.71745 33.6687 8.71745C36.2863 8.71745 37.4315 11.8163 39.6237 11.8163C43.5174 11.8163 42.045 4.68254 45.2515 4.68254C48.3272 4.68254 48.0982 10.6219 51.4356 10.6219C54.0859 10.6219 55.7873 8.55606 57.456 8.55606C58.7975 8.55606 59.5501 9.49216 59.5501 10.6219C59.5501 13.6239 54.3804 15.4638 54.3804 18.6595C54.3804 21.3387 58.5358 22.3393 58.5358 25.2767C58.5358 29.5053 50.4867 24.7603 50.4867 28.6983C50.4867 31.087 53.8241 35.2833 48.818 35.2833C46.2986 35.2833 43.681 34.2181 41.2597 34.2181C35.2065 34.2181 38.9366 41.3195 33.7996 41.3195C31.0184 41.3195 29.1534 39.9961 26.1104 39.9961C21.9877 39.9961 13.2515 44.1924 9.06339 47.0975C9.06339 47.0975 17.9959 42.3847 25.6851 42.3847C30.4294 42.3847 32.7853 45.1285 37.0716 45.1285C39.5583 45.1285 41.1943 44.4183 41.1943 41.7069C41.1943 38.9954 40.2127 36.1226 43.3211 36.1226C46.4294 36.1226 49.7669 39.1891 52.319 39.1891C54.8384 39.1891 56.4417 37.3492 56.4417 35.2833C56.4417 33.1851 55.1656 32.3136 55.1656 30.6674C55.1656 27.9882 58.4703 29.0211 60.4663 29.0211C62.7894 29.0211 64 27.4072 64 25.2122C64 21.5969 59.092 21.8551 59.092 18.4335C59.092 15.0442 63.2802 14.56 63.2802 9.84723C63.2802 7.29716 61.2515 5.45725 58.5358 5.45725C55.5256 5.45725 54.2495 7.78135 52.0245 7.78135C49.7669 7.78135 50.5521 0.841309 45.4478 0.841309C41.1943 0.841309 41.6196 8.03959 39.2638 8.03959C36.8098 8.03959 36.7117 3.94012 33.2761 3.94012C26.6994 3.94012 31.6074 18.0784 26.7321 18.0784C25.1288 18.0784 24.0818 16.6904 22.3149 16.6904C15.9018 16.6582 21.2679 38.0593 0 48.7438Z" fill="#FFFFFF"/>
</svg>
